<svg xmlns="http://www.w3.org/2000/svg" xmlns:xlink="http://www.w3.org/1999/xlink" width="200" zoomAndPan="magnify" viewBox="0 0 150 48.75" height="65" preserveAspectRatio="xMidYMid meet" version="1.0"><defs><g/><clipPath id="dc2b6505f0"><path d="M 0.382812 12 L 149.617188 12 L 149.617188 48.5 L 0.382812 48.5 Z M 0.382812 12 " clip-rule="nonzero"/></clipPath><clipPath id="4077067471"><path d="M 0.382812 10 L 21 10 L 21 31 L 0.382812 31 Z M 0.382812 10 " clip-rule="nonzero"/></clipPath><clipPath id="d1ba257b66"><path d="M 132 9 L 149.617188 9 L 149.617188 31 L 132 31 Z M 132 9 " clip-rule="nonzero"/></clipPath><clipPath id="1c5184ef60"><rect x="0" width="150" y="0" height="37"/></clipPath><clipPath id="155366986e"><path d="M 43 19 L 96 19 L 96 48.5 L 43 48.5 Z M 43 19 " clip-rule="nonzero"/></clipPath><clipPath id="7d8fd76d22"><path d="M 48.679688 19.371094 L 95.554688 28.503906 L 90.277344 55.601562 L 43.402344 46.472656 Z M 48.679688 19.371094 " clip-rule="nonzero"/></clipPath><clipPath id="92769aa032"><path d="M 0.363281 9 L 52.652344 9 L 52.652344 28 L 0.363281 28 Z M 0.363281 9 " clip-rule="nonzero"/></clipPath><clipPath id="764e80285b"><path d="M 5.679688 0.371094 L 52.554688 9.503906 L 47.277344 36.601562 L 0.402344 27.472656 Z M 5.679688 0.371094 " clip-rule="nonzero"/></clipPath><clipPath id="34784f2550"><path d="M 0.4375 27.300781 L 47.308594 36.429688 L 52.589844 9.332031 L 5.714844 0.203125 Z M 0.4375 27.300781 " clip-rule="nonzero"/></clipPath><clipPath id="d625bae482"><rect x="0" width="53" y="0" height="30"/></clipPath><clipPath id="c1bdad985b"><path d="M 41.679688 0 L 73.019531 0 L 73.019531 29.847656 L 41.679688 29.847656 Z M 41.679688 0 " clip-rule="nonzero"/></clipPath><clipPath id="2a265345ff"><path d="M 0.679688 2 L 31.996094 2 L 31.996094 27 L 0.679688 27 Z M 0.679688 2 " clip-rule="nonzero"/></clipPath><clipPath id="9f5d6d41fe"><rect x="0" width="33" y="0" height="30"/></clipPath><clipPath id="766a0586cb"><path d="M 78.210938 13 L 96.121094 13 L 96.121094 27 L 78.210938 27 Z M 78.210938 13 " clip-rule="nonzero"/></clipPath></defs><g clip-path="url(#dc2b6505f0)"><g transform="matrix(1, 0, 0, 1, 0.000000000000000111, 12)"><g clip-path="url(#1c5184ef60)"><g clip-path="url(#4077067471)"><g fill="#25995c" fill-opacity="1"><g transform="translate(-0.187826, 30.367852)"><g><path d="M 20.28125 -11.078125 L 20.28125 0 L 16.453125 0 L 16.453125 -1.53125 C 14.753906 -0.3125 12.847656 0.296875 10.734375 0.296875 C 8.003906 0.296875 5.679688 -0.664062 3.765625 -2.59375 C 1.835938 -4.507812 0.875 -6.828125 0.875 -9.546875 C 0.875 -12.273438 1.835938 -14.597656 3.765625 -16.515625 C 5.679688 -18.429688 8.003906 -19.390625 10.734375 -19.390625 C 13.160156 -19.390625 15.296875 -18.609375 17.140625 -17.046875 L 14.203125 -14.140625 C 13.160156 -14.898438 12.003906 -15.28125 10.734375 -15.28125 C 9.117188 -15.28125 7.773438 -14.722656 6.703125 -13.609375 C 5.566406 -12.472656 5 -11.117188 5 -9.546875 C 5 -7.984375 5.566406 -6.632812 6.703125 -5.5 C 7.816406 -4.382812 9.160156 -3.828125 10.734375 -3.828125 C 12.273438 -3.828125 13.625 -4.382812 14.78125 -5.5 C 14.820312 -5.539062 14.863281 -5.578125 14.90625 -5.609375 L 15.046875 -5.765625 C 15.179688 -5.921875 15.3125 -6.066406 15.4375 -6.203125 C 15.769531 -6.609375 15.992188 -6.960938 16.109375 -7.265625 L 11.703125 -7.265625 L 11.703125 -11.078125 Z M 16.421875 -7.265625 L 16.453125 -7.234375 L 16.453125 -7.265625 Z M 16.421875 -7.265625 "/></g></g></g></g><g fill="#25995c" fill-opacity="1"><g transform="translate(20.966964, 30.367852)"><g><path d="M 11.75 -15.1875 L 15.875 -15.1875 L 15.875 0 L 11.75 0 L 11.75 -1.703125 C 10.914062 -0.609375 9.644531 -0.0625 7.9375 -0.0625 C 5.851562 -0.0390625 4.070312 -0.765625 2.59375 -2.234375 C 1.101562 -3.703125 0.347656 -5.484375 0.328125 -7.578125 C 0.304688 -9.660156 1.03125 -11.445312 2.5 -12.9375 C 3.96875 -14.425781 5.75 -15.175781 7.84375 -15.1875 C 9.570312 -15.1875 10.875 -14.628906 11.75 -13.515625 Z M 10.515625 -5 C 11.242188 -5.71875 11.609375 -6.597656 11.609375 -7.640625 C 11.609375 -8.703125 11.238281 -9.582031 10.5 -10.28125 C 9.75 -11.03125 8.875 -11.382812 7.875 -11.34375 C 6.832031 -11.34375 5.953125 -10.976562 5.234375 -10.25 C 4.503906 -9.53125 4.140625 -8.648438 4.140625 -7.609375 C 4.140625 -6.585938 4.515625 -5.707031 5.265625 -4.96875 C 5.984375 -4.238281 6.863281 -3.875 7.90625 -3.875 C 8.96875 -3.914062 9.835938 -4.289062 10.515625 -5 Z M 10.515625 -5 "/></g></g></g><g fill="#25995c" fill-opacity="1"><g transform="translate(37.714505, 30.367852)"><g><path d="M 5 -12.875 C 5.332031 -13.8125 5.890625 -14.46875 6.671875 -14.84375 C 7.429688 -15.21875 8.578125 -15.40625 10.109375 -15.40625 L 10.109375 -11.203125 C 8.617188 -11.203125 7.375 -10.691406 6.375 -9.671875 C 5.457031 -8.765625 5 -7.773438 5 -6.703125 L 5 0 L 0.875 0 L 0.875 -15.140625 L 5 -15.140625 Z M 5 -12.875 "/></g></g></g><g fill="#25995c" fill-opacity="1"><g transform="translate(48.262522, 30.367852)"><g><path d="M 12.71875 0 L 12.71875 -1.734375 C 11.3125 -0.578125 9.71875 0 7.9375 0 C 5.851562 0.0195312 4.070312 -0.703125 2.59375 -2.171875 C 1.101562 -3.640625 0.347656 -5.425781 0.328125 -7.53125 C 0.304688 -9.601562 1.03125 -11.382812 2.5 -12.875 C 3.96875 -14.363281 5.75 -15.117188 7.84375 -15.140625 C 9.664062 -15.140625 11.285156 -14.5625 12.703125 -13.40625 L 12.703125 -20.515625 L 16.8125 -20.515625 L 16.84375 0 Z M 10.546875 -4.9375 C 11.273438 -5.664062 11.640625 -6.546875 11.640625 -7.578125 C 11.597656 -8.640625 11.222656 -9.523438 10.515625 -10.234375 C 9.773438 -10.929688 8.894531 -11.28125 7.875 -11.28125 C 6.832031 -11.28125 5.953125 -10.921875 5.234375 -10.203125 C 4.503906 -9.398438 4.148438 -8.515625 4.171875 -7.546875 C 4.171875 -6.515625 4.535156 -5.632812 5.265625 -4.90625 C 5.984375 -4.1875 6.863281 -3.828125 7.90625 -3.828125 C 8.96875 -3.859375 9.847656 -4.226562 10.546875 -4.9375 Z M 10.546875 -4.9375 "/></g></g></g><g fill="#25995c" fill-opacity="1"><g transform="translate(65.979665, 30.367852)"><g><path d="M 15.453125 -6.90625 C 15.472656 -6.5 15.472656 -6.253906 15.453125 -6.171875 L 4.40625 -6.203125 C 4.5625 -5.753906 4.847656 -5.320312 5.265625 -4.90625 C 6.023438 -4.1875 6.90625 -3.828125 7.90625 -3.828125 C 8.96875 -3.859375 9.847656 -4.226562 10.546875 -4.9375 L 10.671875 -5.0625 L 14.484375 -3.84375 C 13.640625 -2.53125 12.757812 -1.59375 11.84375 -1.03125 C 10.800781 -0.363281 9.5 -0.0195312 7.9375 0 C 5.851562 0.0195312 4.070312 -0.703125 2.59375 -2.171875 C 1.101562 -3.640625 0.347656 -5.425781 0.328125 -7.53125 C 0.304688 -9.601562 1.03125 -11.382812 2.5 -12.875 C 3.96875 -14.363281 5.75 -15.117188 7.84375 -15.140625 C 9.925781 -15.160156 11.710938 -14.4375 13.203125 -12.96875 C 14.691406 -11.488281 15.441406 -9.703125 15.453125 -7.609375 Z M 7.875 -11.28125 C 6.832031 -11.28125 5.953125 -10.921875 5.234375 -10.203125 C 4.859375 -9.785156 4.59375 -9.375 4.4375 -8.96875 L 11.34375 -8.96875 C 11.1875 -9.375 10.910156 -9.796875 10.515625 -10.234375 C 9.773438 -10.929688 8.894531 -11.28125 7.875 -11.28125 Z M 7.875 -11.28125 "/></g></g></g><g fill="#25995c" fill-opacity="1"><g transform="translate(81.757614, 30.367852)"><g><path d="M 8.40625 -15.078125 C 10.5625 -15.253906 12.34375 -14.695312 13.75 -13.40625 C 15.257812 -12.007812 16.015625 -10.054688 16.015625 -7.546875 L 16.015625 0 L 12.203125 0 L 12.203125 -7.46875 L 12.171875 -7.46875 L 12.171875 -7.53125 C 12.171875 -8.5625 11.804688 -9.441406 11.078125 -10.171875 C 10.359375 -10.890625 9.476562 -11.25 8.4375 -11.25 C 7.375 -11.21875 6.492188 -10.847656 5.796875 -10.140625 C 5.046875 -9.390625 4.691406 -8.507812 4.734375 -7.5 L 4.734375 -7.46875 L 4.703125 -7.46875 L 4.703125 0 L 0.59375 0 L 0.59375 -15.1875 L 4.703125 -15.1875 L 4.703125 -13.21875 C 5.617188 -14.320312 6.851562 -14.941406 8.40625 -15.078125 Z M 8.40625 -15.078125 "/></g></g></g><g fill="#25995c" fill-opacity="1"><g transform="translate(98.358256, 30.367852)"><g><path d="M 11.234375 -19.109375 L 15.8125 -19.109375 L 15.8125 0 L 11.234375 0 L 11.234375 -7.5 L 5.46875 -7.5 L 5.46875 0 L 0.875 0 L 0.875 -19.109375 L 5.46875 -19.109375 L 5.46875 -11.609375 L 11.234375 -11.609375 Z M 11.234375 -19.109375 "/></g></g></g><g fill="#25995c" fill-opacity="1"><g transform="translate(115.047039, 30.367852)"><g><path d="M 0.875 -15.1875 L 4.703125 -15.1875 L 4.703125 -7.546875 C 4.703125 -7.253906 4.75 -6.921875 4.84375 -6.546875 C 4.96875 -6.097656 5.144531 -5.6875 5.375 -5.3125 C 6.019531 -4.332031 6.941406 -3.84375 8.140625 -3.84375 C 9.453125 -3.84375 10.398438 -4.34375 10.984375 -5.34375 C 11.203125 -5.695312 11.363281 -6.109375 11.46875 -6.578125 C 11.539062 -6.910156 11.578125 -7.242188 11.578125 -7.578125 L 11.578125 -15.1875 L 15.6875 -15.1875 L 15.6875 0 L 11.578125 0 L 11.578125 -1.59375 C 10.617188 -0.53125 9.382812 0 7.875 0 C 5.9375 0.0195312 4.289062 -0.675781 2.9375 -2.09375 C 1.5625 -3.476562 0.875 -5.203125 0.875 -7.265625 Z M 0.875 -15.1875 "/></g></g></g><g clip-path="url(#d1ba257b66)"><g fill="#25995c" fill-opacity="1"><g transform="translate(131.618297, 30.367852)"><g><path d="M 9.90625 -15.140625 C 12 -15.117188 13.78125 -14.363281 15.25 -12.875 C 16.71875 -11.382812 17.441406 -9.601562 17.421875 -7.53125 C 17.410156 -5.425781 16.660156 -3.640625 15.171875 -2.171875 C 13.679688 -0.703125 11.894531 0.0195312 9.8125 0 C 8.03125 0 6.4375 -0.578125 5.03125 -1.734375 L 5.03125 0 L 0.90625 0 L 0.875 -20.515625 L 5 -20.515625 L 5 -13.34375 C 6.40625 -14.539062 8.039062 -15.140625 9.90625 -15.140625 Z M 12.484375 -4.90625 C 13.191406 -5.613281 13.566406 -6.492188 13.609375 -7.546875 C 13.609375 -8.546875 13.242188 -9.429688 12.515625 -10.203125 C 11.796875 -10.921875 10.914062 -11.28125 9.875 -11.28125 C 8.851562 -11.28125 7.972656 -10.929688 7.234375 -10.234375 C 6.503906 -9.503906 6.140625 -8.617188 6.140625 -7.578125 C 6.097656 -6.554688 6.453125 -5.675781 7.203125 -4.9375 C 7.910156 -4.226562 8.789062 -3.859375 9.84375 -3.828125 C 10.882812 -3.828125 11.765625 -4.1875 12.484375 -4.90625 Z M 12.484375 -4.90625 "/></g></g></g></g></g></g></g><g clip-path="url(#155366986e)"><g clip-path="url(#7d8fd76d22)"><g transform="matrix(1, 0, 0, 1, 43, 19)"><g clip-path="url(#d625bae482)"><g clip-path="url(#92769aa032)"><g clip-path="url(#764e80285b)"><g clip-path="url(#34784f2550)"><path fill="#ffffff" d="M 51.117188 10.199219 C 50.75 10.15625 50.378906 10.117188 50.011719 10.089844 L 49.3125 10.035156 L 48.511719 9.980469 L 48.371094 9.953125 C 48.007812 9.929688 47.644531 9.917969 47.28125 9.90625 L 46.921875 9.898438 L 46.007812 9.882812 L 45.570312 9.886719 C 45.246094 9.882812 44.921875 9.886719 44.597656 9.894531 L 44.558594 9.886719 C 44.160156 9.890625 43.753906 9.902344 43.351562 9.925781 L 43.242188 9.902344 C 42.839844 9.917969 42.433594 9.941406 42.027344 9.972656 C 41.621094 10.003906 41.25 10.027344 40.847656 10.070312 C 40.441406 10.113281 40.214844 10.121094 39.894531 10.164062 C 39.570312 10.203125 39.300781 10.226562 38.976562 10.261719 C 38.65625 10.300781 38.386719 10.328125 38.125 10.375 C 37.75 10.425781 37.378906 10.480469 37.007812 10.542969 C 36.632812 10.601562 36.191406 10.671875 35.804688 10.753906 C 35.414062 10.835938 35.09375 10.882812 34.734375 10.953125 C 34.285156 11.039062 33.828125 11.136719 33.378906 11.234375 C 32.929688 11.335938 32.582031 11.410156 32.191406 11.511719 C 31.800781 11.609375 31.40625 11.699219 31.015625 11.804688 C 30.621094 11.90625 30.238281 12.007812 29.847656 12.117188 C 29.460938 12.226562 29.09375 12.324219 28.714844 12.441406 C 27.1875 12.890625 25.695312 13.386719 24.253906 13.898438 C 23.894531 14.023438 23.539062 14.148438 23.1875 14.269531 C 19.058594 15.894531 15.074219 17.824219 11.234375 20.0625 L 10.476562 20.492188 C 8.984375 21.363281 7.628906 22.210938 6.433594 22.996094 L 5.847656 23.378906 C 4.710938 24.148438 3.734375 24.835938 2.9375 25.417969 L 2.304688 25.875 C 1.691406 26.335938 1.226562 26.699219 0.933594 26.945312 L 0.648438 27.167969 L 0.476562 27.308594 L 1.359375 22.761719 C 10.582031 16.5625 31.109375 5.3125 52.644531 10.355469 L 52.078125 10.289062 C 51.742188 10.269531 51.449219 10.234375 51.117188 10.199219 Z M 51.117188 10.199219 " fill-opacity="1" fill-rule="nonzero"/></g></g></g></g></g></g></g><g clip-path="url(#c1bdad985b)"><g transform="matrix(1, 0, 0, 1, 41, 0.000000000000008417)"><g clip-path="url(#9f5d6d41fe)"><g clip-path="url(#2a265345ff)"><path fill="#25995c" d="M 7.65625 5.320312 C 22.433594 5.253906 30.363281 12.1875 31.042969 26.539062 C 31.050781 26.722656 31.3125 26.730469 31.339844 26.550781 C 31.996094 21.863281 31.871094 17.589844 30.6875 13.875 C 26.777344 1.609375 11.867188 0.00390625 1.289062 3.882812 C 0.765625 4.078125 0.65625 4.761719 1.09375 5.113281 C 9.347656 11.746094 8.222656 29.84375 28.308594 22 C 25.171875 12.203125 18.738281 6.128906 7.65625 5.320312 " fill-opacity="1" fill-rule="evenodd"/></g></g></g></g><g clip-path="url(#766a0586cb)"><path fill="#25995c" d="M 92.121094 15.003906 C 83.679688 14.964844 79.144531 18.777344 78.757812 26.671875 C 78.753906 26.769531 78.601562 26.777344 78.589844 26.675781 C 78.210938 24.097656 78.285156 21.75 78.960938 19.707031 C 81.195312 12.964844 89.714844 12.078125 95.757812 14.210938 C 96.058594 14.320312 96.121094 14.695312 95.871094 14.890625 C 91.15625 18.535156 91.796875 28.488281 80.320312 24.175781 C 82.113281 18.785156 85.789062 15.449219 92.121094 15.003906 " fill-opacity="1" fill-rule="evenodd"/></g></svg>