<svg xmlns="http://www.w3.org/2000/svg" xmlns:xlink="http://www.w3.org/1999/xlink" width="123" zoomAndPan="magnify" viewBox="0 0 93.119995 37.92" height="40" preserveAspectRatio="xMidYMid meet" version="1.0"><defs><g/><clipPath id="10aca2dd78"><path d="M 0 7 L 91.386719 7 L 91.386719 29.855469 L 0 29.855469 Z M 0 7 " clip-rule="nonzero"/></clipPath><clipPath id="3951fd3dc5"><path d="M 80 6 L 91.386719 6 L 91.386719 20 L 80 20 Z M 80 6 " clip-rule="nonzero"/></clipPath><clipPath id="19135b97ed"><rect x="0" width="92" y="0" height="23"/></clipPath><clipPath id="78686cec1e"><path d="M 26 11 L 60 11 L 60 29.855469 L 26 29.855469 Z M 26 11 " clip-rule="nonzero"/></clipPath><clipPath id="f2d94b00d6"><path d="M 29.664062 11.554688 L 59.566406 17.378906 L 56.296875 34.152344 L 26.398438 28.328125 Z M 29.664062 11.554688 " clip-rule="nonzero"/></clipPath><clipPath id="ebff447932"><path d="M 0.390625 6 L 33.675781 6 L 33.675781 18 L 0.390625 18 Z M 0.390625 6 " clip-rule="nonzero"/></clipPath><clipPath id="68457d0984"><path d="M 3.664062 0.554688 L 33.566406 6.378906 L 30.296875 23.152344 L 0.398438 17.328125 Z M 3.664062 0.554688 " clip-rule="nonzero"/></clipPath><clipPath id="1a5a7d2179"><path d="M 0.363281 17.496094 L 30.265625 23.320312 L 33.53125 6.546875 L 3.632812 0.726562 Z M 0.363281 17.496094 " clip-rule="nonzero"/></clipPath><clipPath id="6b0811460d"><rect x="0" width="34" y="0" height="19"/></clipPath><clipPath id="af30002045"><path d="M 25.289062 1 L 44.605469 1 L 44.605469 17 L 25.289062 17 Z M 25.289062 1 " clip-rule="nonzero"/></clipPath><clipPath id="cea5f8d0c8"><path d="M 0.289062 0.328125 L 19.460938 0.328125 L 19.460938 15.542969 L 0.289062 15.542969 Z M 0.289062 0.328125 " clip-rule="nonzero"/></clipPath><clipPath id="1c06ef09a8"><rect x="0" width="20" y="0" height="16"/></clipPath><clipPath id="e8b38d86ee"><path d="M 47.660156 8 L 58.804688 8 L 58.804688 17 L 47.660156 17 Z M 47.660156 8 " clip-rule="nonzero"/></clipPath></defs><g clip-path="url(#10aca2dd78)"><g transform="matrix(1, 0, 0, 1, 0, 7)"><g clip-path="url(#19135b97ed)"><g fill="#1e3d2a" fill-opacity="1"><g transform="translate(-0.349342, 19.09183)"><g><path d="M 12.421875 -6.78125 L 12.421875 0 L 10.078125 0 L 10.078125 -0.9375 C 9.035156 -0.1875 7.863281 0.1875 6.5625 0.1875 C 4.894531 0.1875 3.472656 -0.398438 2.296875 -1.578125 C 1.128906 -2.753906 0.546875 -4.175781 0.546875 -5.84375 C 0.546875 -7.519531 1.128906 -8.941406 2.296875 -10.109375 C 3.472656 -11.285156 4.894531 -11.875 6.5625 -11.875 C 8.050781 -11.875 9.363281 -11.394531 10.5 -10.4375 L 8.6875 -8.65625 C 8.050781 -9.125 7.34375 -9.359375 6.5625 -9.359375 C 5.582031 -9.359375 4.765625 -9.015625 4.109375 -8.328125 C 3.410156 -7.640625 3.0625 -6.8125 3.0625 -5.84375 C 3.0625 -4.882812 3.410156 -4.054688 4.109375 -3.359375 C 4.785156 -2.679688 5.601562 -2.34375 6.5625 -2.34375 C 7.507812 -2.34375 8.335938 -2.679688 9.046875 -3.359375 C 9.078125 -3.390625 9.101562 -3.414062 9.125 -3.4375 L 9.21875 -3.53125 C 9.300781 -3.625 9.378906 -3.710938 9.453125 -3.796875 C 9.648438 -4.046875 9.785156 -4.265625 9.859375 -4.453125 L 7.15625 -4.453125 L 7.15625 -6.78125 Z M 10.0625 -4.453125 L 10.078125 -4.421875 L 10.078125 -4.453125 Z M 10.0625 -4.453125 "/></g></g></g><g fill="#1e3d2a" fill-opacity="1"><g transform="translate(12.60515, 19.09183)"><g><path d="M 7.203125 -9.3125 L 9.71875 -9.3125 L 9.71875 0 L 7.203125 0 L 7.203125 -1.046875 C 6.679688 -0.367188 5.898438 -0.03125 4.859375 -0.03125 C 3.585938 -0.0195312 2.492188 -0.46875 1.578125 -1.375 C 0.671875 -2.269531 0.210938 -3.359375 0.203125 -4.640625 C 0.191406 -5.910156 0.632812 -7.003906 1.53125 -7.921875 C 2.425781 -8.828125 3.519531 -9.289062 4.8125 -9.3125 C 5.863281 -9.3125 6.660156 -8.96875 7.203125 -8.28125 Z M 6.4375 -3.0625 C 6.882812 -3.5 7.109375 -4.039062 7.109375 -4.6875 C 7.109375 -5.332031 6.878906 -5.867188 6.421875 -6.296875 C 5.960938 -6.753906 5.429688 -6.972656 4.828125 -6.953125 C 4.191406 -6.953125 3.648438 -6.726562 3.203125 -6.28125 C 2.753906 -5.832031 2.53125 -5.289062 2.53125 -4.65625 C 2.53125 -4.03125 2.757812 -3.492188 3.21875 -3.046875 C 3.664062 -2.597656 4.207031 -2.375 4.84375 -2.375 C 5.488281 -2.394531 6.019531 -2.625 6.4375 -3.0625 Z M 6.4375 -3.0625 "/></g></g></g><g fill="#1e3d2a" fill-opacity="1"><g transform="translate(22.860789, 19.09183)"><g><path d="M 3.0625 -7.890625 C 3.257812 -8.460938 3.601562 -8.863281 4.09375 -9.09375 C 4.550781 -9.320312 5.25 -9.4375 6.1875 -9.4375 L 6.1875 -6.859375 C 5.28125 -6.859375 4.519531 -6.546875 3.90625 -5.921875 C 3.34375 -5.367188 3.0625 -4.765625 3.0625 -4.109375 L 3.0625 0 L 0.546875 0 L 0.546875 -9.265625 L 3.0625 -9.265625 Z M 3.0625 -7.890625 "/></g></g></g><g fill="#1e3d2a" fill-opacity="1"><g transform="translate(29.320045, 19.09183)"><g><path d="M 7.796875 0 L 7.796875 -1.0625 C 6.929688 -0.351562 5.953125 0 4.859375 0 C 3.585938 0.0078125 2.492188 -0.429688 1.578125 -1.328125 C 0.671875 -2.234375 0.210938 -3.328125 0.203125 -4.609375 C 0.191406 -5.878906 0.632812 -6.972656 1.53125 -7.890625 C 2.425781 -8.796875 3.519531 -9.253906 4.8125 -9.265625 C 5.925781 -9.265625 6.914062 -8.910156 7.78125 -8.203125 L 7.78125 -12.5625 L 10.296875 -12.5625 L 10.3125 0 Z M 6.46875 -3.03125 C 6.90625 -3.46875 7.125 -4.003906 7.125 -4.640625 C 7.101562 -5.285156 6.875 -5.828125 6.4375 -6.265625 C 5.988281 -6.691406 5.453125 -6.90625 4.828125 -6.90625 C 4.191406 -6.90625 3.648438 -6.6875 3.203125 -6.25 C 2.753906 -5.757812 2.539062 -5.21875 2.5625 -4.625 C 2.5625 -3.988281 2.78125 -3.445312 3.21875 -3 C 3.664062 -2.5625 4.207031 -2.34375 4.84375 -2.34375 C 5.488281 -2.363281 6.03125 -2.59375 6.46875 -3.03125 Z M 6.46875 -3.03125 "/></g></g></g><g fill="#1e3d2a" fill-opacity="1"><g transform="translate(40.169436, 19.09183)"><g><path d="M 9.46875 -4.234375 C 9.476562 -3.984375 9.476562 -3.832031 9.46875 -3.78125 L 2.703125 -3.796875 C 2.796875 -3.523438 2.96875 -3.257812 3.21875 -3 C 3.6875 -2.5625 4.226562 -2.34375 4.84375 -2.34375 C 5.488281 -2.363281 6.03125 -2.59375 6.46875 -3.03125 L 6.53125 -3.09375 L 8.875 -2.359375 C 8.351562 -1.554688 7.8125 -0.976562 7.25 -0.625 C 6.613281 -0.21875 5.816406 -0.0078125 4.859375 0 C 3.585938 0.0078125 2.492188 -0.429688 1.578125 -1.328125 C 0.671875 -2.234375 0.210938 -3.328125 0.203125 -4.609375 C 0.191406 -5.878906 0.632812 -6.972656 1.53125 -7.890625 C 2.425781 -8.796875 3.519531 -9.253906 4.8125 -9.265625 C 6.082031 -9.273438 7.171875 -8.832031 8.078125 -7.9375 C 8.992188 -7.039062 9.457031 -5.945312 9.46875 -4.65625 Z M 4.828125 -6.90625 C 4.191406 -6.90625 3.648438 -6.6875 3.203125 -6.25 C 2.972656 -6 2.8125 -5.742188 2.71875 -5.484375 L 6.953125 -5.484375 C 6.847656 -5.742188 6.675781 -6.003906 6.4375 -6.265625 C 5.988281 -6.691406 5.453125 -6.90625 4.828125 -6.90625 Z M 4.828125 -6.90625 "/></g></g></g><g fill="#1e3d2a" fill-opacity="1"><g transform="translate(49.831329, 19.09183)"><g><path d="M 5.140625 -9.234375 C 6.460938 -9.335938 7.554688 -8.992188 8.421875 -8.203125 C 9.347656 -7.359375 9.8125 -6.164062 9.8125 -4.625 L 9.8125 0 L 7.46875 0 L 7.46875 -4.578125 L 7.453125 -4.578125 L 7.453125 -4.609375 C 7.453125 -5.242188 7.226562 -5.785156 6.78125 -6.234375 C 6.34375 -6.671875 5.804688 -6.890625 5.171875 -6.890625 C 4.515625 -6.867188 3.972656 -6.640625 3.546875 -6.203125 C 3.085938 -5.753906 2.867188 -5.21875 2.890625 -4.59375 L 2.890625 -4.578125 L 2.875 -4.578125 L 2.875 0 L 0.359375 0 L 0.359375 -9.3125 L 2.875 -9.3125 L 2.875 -8.09375 C 3.4375 -8.769531 4.191406 -9.148438 5.140625 -9.234375 Z M 5.140625 -9.234375 "/></g></g></g><g fill="#1e3d2a" fill-opacity="1"><g transform="translate(59.997012, 19.09183)"><g><path d="M 6.875 -11.703125 L 9.6875 -11.703125 L 9.6875 0 L 6.875 0 L 6.875 -4.59375 L 3.34375 -4.59375 L 3.34375 0 L 0.546875 0 L 0.546875 -11.703125 L 3.34375 -11.703125 L 3.34375 -7.109375 L 6.875 -7.109375 Z M 6.875 -11.703125 "/></g></g></g><g fill="#1e3d2a" fill-opacity="1"><g transform="translate(70.21667, 19.09183)"><g><path d="M 0.546875 -9.3125 L 2.875 -9.3125 L 2.875 -4.625 C 2.875 -4.445312 2.90625 -4.242188 2.96875 -4.015625 C 3.039062 -3.734375 3.148438 -3.484375 3.296875 -3.265625 C 3.691406 -2.660156 4.253906 -2.359375 4.984375 -2.359375 C 5.785156 -2.359375 6.367188 -2.664062 6.734375 -3.28125 C 6.867188 -3.488281 6.960938 -3.738281 7.015625 -4.03125 C 7.066406 -4.238281 7.09375 -4.441406 7.09375 -4.640625 L 7.09375 -9.3125 L 9.609375 -9.3125 L 9.609375 0 L 7.09375 0 L 7.09375 -0.96875 C 6.5 -0.320312 5.742188 0 4.828125 0 C 3.640625 0.0078125 2.628906 -0.414062 1.796875 -1.28125 C 0.960938 -2.132812 0.546875 -3.191406 0.546875 -4.453125 Z M 0.546875 -9.3125 "/></g></g></g><g clip-path="url(#3951fd3dc5)"><g fill="#1e3d2a" fill-opacity="1"><g transform="translate(80.364359, 19.09183)"><g><path d="M 6.0625 -9.265625 C 7.34375 -9.253906 8.4375 -8.796875 9.34375 -7.890625 C 10.238281 -6.972656 10.679688 -5.878906 10.671875 -4.609375 C 10.660156 -3.328125 10.195312 -2.234375 9.28125 -1.328125 C 8.375 -0.429688 7.285156 0.0078125 6.015625 0 C 4.921875 0 3.941406 -0.351562 3.078125 -1.0625 L 3.078125 0 L 0.5625 0 L 0.546875 -12.5625 L 3.0625 -12.5625 L 3.0625 -8.171875 C 3.925781 -8.898438 4.925781 -9.265625 6.0625 -9.265625 Z M 7.65625 -3 C 8.082031 -3.4375 8.304688 -3.976562 8.328125 -4.625 C 8.328125 -5.238281 8.109375 -5.78125 7.671875 -6.25 C 7.222656 -6.6875 6.679688 -6.90625 6.046875 -6.90625 C 5.421875 -6.90625 4.878906 -6.691406 4.421875 -6.265625 C 3.984375 -5.816406 3.765625 -5.273438 3.765625 -4.640625 C 3.734375 -4.015625 3.945312 -3.476562 4.40625 -3.03125 C 4.84375 -2.59375 5.382812 -2.363281 6.03125 -2.34375 C 6.664062 -2.34375 7.207031 -2.5625 7.65625 -3 Z M 7.65625 -3 "/></g></g></g></g></g></g></g><g clip-path="url(#78686cec1e)"><g clip-path="url(#f2d94b00d6)"><g transform="matrix(1, 0, 0, 1, 26, 11)"><g clip-path="url(#6b0811460d)"><g clip-path="url(#ebff447932)"><g clip-path="url(#68457d0984)"><g clip-path="url(#1a5a7d2179)"><path fill="#ffffff" d="M 32.261719 6.738281 C 32.027344 6.710938 31.792969 6.6875 31.566406 6.667969 L 31.125 6.632812 L 30.621094 6.601562 L 30.53125 6.582031 C 30.304688 6.570312 30.074219 6.5625 29.847656 6.554688 L 29.621094 6.550781 L 29.042969 6.539062 L 28.769531 6.539062 C 28.566406 6.539062 28.359375 6.542969 28.160156 6.546875 L 28.132812 6.539062 C 27.882812 6.542969 27.628906 6.550781 27.371094 6.566406 L 27.304688 6.550781 C 27.050781 6.558594 26.796875 6.578125 26.539062 6.597656 C 26.285156 6.617188 26.050781 6.628906 25.796875 6.65625 C 25.542969 6.683594 25.398438 6.6875 25.195312 6.714844 C 24.996094 6.742188 24.824219 6.753906 24.621094 6.777344 C 24.417969 6.800781 24.25 6.820312 24.085938 6.847656 C 23.847656 6.878906 23.613281 6.914062 23.382812 6.953125 C 23.148438 6.992188 22.867188 7.035156 22.625 7.085938 C 22.378906 7.136719 22.175781 7.167969 21.953125 7.210938 C 21.667969 7.265625 21.382812 7.328125 21.097656 7.390625 C 20.816406 7.453125 20.597656 7.5 20.351562 7.5625 C 20.105469 7.625 19.855469 7.683594 19.609375 7.746094 C 19.363281 7.8125 19.121094 7.875 18.878906 7.945312 C 18.632812 8.015625 18.402344 8.074219 18.164062 8.148438 C 17.203125 8.429688 16.265625 8.746094 15.355469 9.066406 C 15.128906 9.144531 14.90625 9.222656 14.6875 9.300781 C 12.085938 10.324219 9.578125 11.535156 7.164062 12.941406 L 6.6875 13.214844 C 5.746094 13.765625 4.894531 14.296875 4.144531 14.789062 L 3.773438 15.03125 C 3.058594 15.515625 2.445312 15.945312 1.941406 16.3125 L 1.546875 16.601562 C 1.160156 16.890625 0.867188 17.121094 0.683594 17.273438 L 0.503906 17.414062 L 0.394531 17.503906 L 0.949219 14.644531 C 6.753906 10.742188 19.671875 3.664062 33.222656 6.835938 L 32.863281 6.792969 C 32.652344 6.78125 32.46875 6.761719 32.261719 6.738281 Z M 32.261719 6.738281 " fill-opacity="1" fill-rule="nonzero"/></g></g></g></g></g></g></g><g clip-path="url(#af30002045)"><g transform="matrix(1, 0, 0, 1, 25, 1)"><g clip-path="url(#1c06ef09a8)"><g clip-path="url(#cea5f8d0c8)"><path fill="#1e3d2a" d="M 4.574219 2.382812 C 13.613281 2.34375 18.46875 6.566406 18.882812 15.304688 C 18.890625 15.414062 19.050781 15.421875 19.066406 15.3125 C 19.46875 12.457031 19.390625 9.855469 18.664062 7.59375 C 16.273438 0.125 7.152344 -0.851562 0.675781 1.511719 C 0.355469 1.628906 0.289062 2.042969 0.558594 2.257812 C 5.605469 6.296875 4.917969 17.316406 17.210938 12.539062 C 15.289062 6.574219 11.355469 2.878906 4.574219 2.382812 " fill-opacity="1" fill-rule="evenodd"/></g></g></g></g><g clip-path="url(#e8b38d86ee)"><path fill="#1e3d2a" d="M 56.046875 9.363281 C 50.957031 9.339844 48.222656 11.71875 47.988281 16.636719 C 47.988281 16.699219 47.894531 16.703125 47.886719 16.640625 C 47.660156 15.035156 47.703125 13.570312 48.113281 12.296875 C 49.457031 8.09375 54.59375 7.542969 58.238281 8.871094 C 58.421875 8.9375 58.457031 9.171875 58.304688 9.292969 C 55.464844 11.566406 55.851562 17.769531 48.933594 15.082031 C 50.011719 11.722656 52.226562 9.640625 56.046875 9.363281 " fill-opacity="1" fill-rule="evenodd"/></g></svg>