<svg width="27" height="27" viewBox="0 0 27 27" fill="none" xmlns="http://www.w3.org/2000/svg">
<g clip-path="url(#clip0_322_1962)">
<path d="M27.0061 1.68761C27.0061 7.67949 22.5439 12.6323 16.763 13.3971C16.3885 10.5805 15.149 8.03816 13.3187 6.04965C15.3389 2.44187 19.1998 -0.000244141 23.6304 -0.000244141H25.3183C26.2519 -0.000244141 27.0061 0.754015 27.0061 1.68761ZM0.000488281 5.06332C0.000488281 4.12972 0.754748 3.37546 1.68834 3.37546H3.37619C9.9008 3.37546 15.1912 8.66583 15.1912 15.1904V16.8783V25.3176C15.1912 26.2511 14.4369 27.0054 13.5033 27.0054C12.5697 27.0054 11.8155 26.2511 11.8155 25.3176V16.8783C5.29085 16.8783 0.000488281 11.5879 0.000488281 5.06332Z" fill="#226B3E"/>
</g>
<defs>
<clipPath id="clip0_322_1962">
<path d="M0 0H27.0056V27.0056H0V0Z" fill="white"/>
</clipPath>
</defs>
</svg>
