<svg width="56" height="56" viewBox="0 0 56 56" fill="none" xmlns="http://www.w3.org/2000/svg">
<path d="M28.0007 32.6666H30.3341C32.9007 32.6666 35.0007 30.5666 35.0007 28V4.66663H14.0007C10.5007 4.66663 7.44409 6.60326 5.85742 9.44993" stroke="#353535" stroke-width="2.5" stroke-linecap="round" stroke-linejoin="round"/>
<path d="M4.66602 39.6666C4.66602 43.54 7.79268 46.6666 11.666 46.6666H13.9993C13.9993 44.1 16.0993 42 18.666 42C21.2327 42 23.3327 44.1 23.3327 46.6666H32.666C32.666 44.1 34.766 42 37.3327 42C39.8994 42 41.9994 44.1 41.9994 46.6666H44.3327C48.206 46.6666 51.3327 43.54 51.3327 39.6666V32.6666H44.3327C43.0494 32.6666 41.9994 31.6166 41.9994 30.3333V23.3333C41.9994 22.05 43.0494 21 44.3327 21H47.3426L43.3527 14.0233C42.5127 12.5766 40.9727 11.6666 39.2927 11.6666H34.9994V28C34.9994 30.5666 32.8994 32.6666 30.3327 32.6666H27.9994" stroke="#353535" stroke-width="2.5" stroke-linecap="round" stroke-linejoin="round"/>
<path d="M18.6667 51.3333C21.244 51.3333 23.3333 49.244 23.3333 46.6667C23.3333 44.0893 21.244 42 18.6667 42C16.0893 42 14 44.0893 14 46.6667C14 49.244 16.0893 51.3333 18.6667 51.3333Z" stroke="#353535" stroke-width="2.5" stroke-linecap="round" stroke-linejoin="round"/>
<path d="M37.3327 51.3333C39.91 51.3333 41.9993 49.244 41.9993 46.6667C41.9993 44.0893 39.91 42 37.3327 42C34.7554 42 32.666 44.0893 32.666 46.6667C32.666 49.244 34.7554 51.3333 37.3327 51.3333Z" stroke="#353535" stroke-width="2.5" stroke-linecap="round" stroke-linejoin="round"/>
<path d="M51.3333 28V32.6667H44.3333C43.05 32.6667 42 31.6167 42 30.3333V23.3333C42 22.05 43.05 21 44.3333 21H47.3433L51.3333 28Z" stroke="#353535" stroke-width="2.5" stroke-linecap="round" stroke-linejoin="round"/>
<path d="M4.66602 18.6666H18.666" stroke="#353535" stroke-width="2.5" stroke-linecap="round" stroke-linejoin="round"/>
<path d="M4.66602 25.6666H13.9993" stroke="#353535" stroke-width="2.5" stroke-linecap="round" stroke-linejoin="round"/>
<path d="M4.66602 32.6666H9.33268" stroke="#353535" stroke-width="2.5" stroke-linecap="round" stroke-linejoin="round"/>
</svg>
