<svg width="24" height="22" viewBox="0 0 24 22" fill="none" xmlns="http://www.w3.org/2000/svg">
<path d="M9.6488 2.33863C7.5521 0.243002 3.44912 0 0.544902 0C0.244125 0 0 0.244074 0 0.544851C0 3.44907 0.241929 7.55205 2.33863 9.6488C3.22354 10.5337 4.5803 10.9293 5.92506 10.9293C7.38644 10.9293 8.83475 10.4618 9.6488 9.64773C11.2105 8.08607 11.4971 4.18579 9.6488 2.33863ZM8.87837 8.87832C7.7123 10.0433 4.47461 10.2427 3.11024 8.87832C1.41781 7.18594 1.12464 3.7477 1.09302 1.09302C3.7477 1.12464 7.18594 1.41776 8.87832 3.11019C10.2427 4.47456 10.0433 7.71337 8.87837 8.87832ZM23.4551 2.15555C20.5509 2.15555 16.4479 2.39748 14.3511 4.49418C12.5029 6.34134 12.7895 10.2416 14.3511 11.8033C15.1652 12.6163 16.6124 13.0838 18.0738 13.0838C19.4186 13.0838 20.7743 12.6893 21.6613 11.8044C23.7569 9.7077 24 5.60472 24 2.70045C24 2.39967 23.7559 2.15555 23.4551 2.15555ZM20.8887 11.0328C19.5243 12.3972 16.2855 12.1977 15.1206 11.0328C13.9556 9.86785 13.7562 6.62903 15.1206 5.26466C16.813 3.57223 20.2512 3.27912 22.9059 3.2475C22.8743 5.90325 22.5811 9.34149 20.8887 11.0328Z" fill="#686868"/>
<path d="M19.5205 6.87207C19.392 6.59852 19.0236 6.50484 18.7523 6.63122C14.573 8.59607 12.5199 12.0223 11.587 15.5444C10.4329 8.05551 7.09497 5.77246 5.67936 4.80367C5.50282 4.68271 5.3655 4.59444 5.28924 4.51924C5.07673 4.30674 4.73126 4.30674 4.51875 4.51924C4.30625 4.73175 4.30625 5.07722 4.51875 5.28973C4.62664 5.39654 4.81299 5.53058 5.06473 5.70273C6.66015 6.79361 10.8982 9.69349 10.8982 21.2505C10.8982 21.5513 11.1424 21.7954 11.4432 21.7954C11.7439 21.7954 11.9881 21.5513 11.9881 21.2516C11.9881 16.582 13.2424 10.4259 19.2165 7.6186C19.2165 7.61753 19.3048 7.5761 19.3048 7.5761C19.5761 7.44747 19.6491 7.1445 19.5205 6.87207Z" fill="#686868"/>
</svg>
