<svg width="56" height="56" viewBox="0 0 56 56" fill="none" xmlns="http://www.w3.org/2000/svg">
<path d="M46.9326 3.59961H51.3877C51.6564 3.59966 51.9145 3.70649 52.1045 3.89648C52.2945 4.08649 52.4013 4.34458 52.4014 4.61328V16.8633C52.4014 17.132 52.2944 17.39 52.1045 17.5801C51.9144 17.7701 51.6565 17.8769 51.3877 17.877H46.9326C46.6879 17.8765 46.4513 17.7868 46.2686 17.624C46.0858 17.4611 45.9689 17.2363 45.9404 16.9932L45.9297 16.8936L45.8301 16.9053L44.0254 17.1221L43.9912 17.126L43.9668 17.1504L38.5059 22.6709C38.4752 22.7017 38.4588 22.7194 38.4346 22.7393C38.4109 22.7587 38.3785 22.7817 38.3193 22.8164C38.1993 22.8868 37.9817 22.9989 37.5342 23.2246C37.088 23.4497 36.4158 23.7862 35.3887 24.3027L31.1143 26.4629C30.4613 26.7841 29.7139 26.8575 29.0107 26.6699C28.3075 26.4823 27.6962 26.0463 27.29 25.4424C26.8839 24.8382 26.71 24.1069 26.8018 23.3848C26.8936 22.6626 27.2447 21.998 27.7891 21.5146L27.7959 21.5078L31.6094 17.4609C31.7981 17.2612 31.9134 17.0033 31.9365 16.7295C31.9596 16.4559 31.8897 16.1825 31.7373 15.9541L31.2988 15.2949H31.2979C31.1676 15.1 30.9839 14.9471 30.7686 14.8545C30.5533 14.7619 30.3159 14.733 30.085 14.7725H30.084L25.1133 15.6406L25.0967 15.6436L25.082 15.6514C24.852 15.7778 24.6664 15.9718 24.5498 16.207L22.1074 21.1406C21.6477 22.0691 20.9592 22.6089 20.208 22.8418C19.4547 23.0753 18.6311 23.0022 17.9023 22.6914C16.4449 22.0697 15.3851 20.5092 16.0205 18.5918L18.0156 12.5596C18.1979 12.0034 18.4881 11.4883 18.8701 11.0449C19.252 10.6017 19.7183 10.239 20.2412 9.97656L20.2422 9.97559H20.2432C20.2441 9.97509 20.2461 9.97364 20.248 9.97266C20.2519 9.97071 20.2574 9.96753 20.2646 9.96387C20.2801 9.95613 20.3032 9.94466 20.333 9.92969C20.3926 9.89975 20.4805 9.85664 20.5918 9.80078C20.8146 9.68896 21.1331 9.52866 21.5156 9.33691C22.281 8.95331 23.3034 8.44179 24.3291 7.92969C25.3547 7.41762 26.3842 6.90495 27.165 6.51953C27.5552 6.32692 27.883 6.16582 28.1172 6.05273C28.2343 5.9962 28.3278 5.95136 28.3936 5.9209C28.4263 5.90572 28.4519 5.89436 28.4697 5.88672C28.477 5.8836 28.4825 5.88042 28.4863 5.87891L37.6553 4.72168H37.6758C37.692 4.72142 37.7162 4.72095 37.7471 4.7207C37.8087 4.72022 37.8978 4.72015 38.0107 4.71973C38.237 4.71887 38.5584 4.7184 38.9424 4.71777C39.7103 4.71652 40.7303 4.7154 41.749 4.71484C42.7678 4.71429 43.786 4.71401 44.5488 4.71387H45.9189V4.61328C45.919 4.34458 46.0258 4.08649 46.2158 3.89648C46.4058 3.70648 46.6639 3.5997 46.9326 3.59961ZM37.8428 6.74121L28.9229 7.86914L28.9062 7.87109L28.8906 7.87891L21.1562 11.7852C20.8696 11.9279 20.6139 12.1261 20.4043 12.3682C20.2469 12.5499 20.1176 12.7537 20.0205 12.9727L19.9346 13.1963L17.9404 19.2305C17.838 19.5349 17.8538 19.8667 17.9844 20.1602C18.1149 20.4536 18.3508 20.6877 18.6455 20.8154C18.9401 20.9431 19.2719 20.9549 19.5752 20.8496C19.8786 20.7443 20.132 20.529 20.2842 20.2461L20.2852 20.2432L22.7275 15.3096C23.0745 14.6098 23.6572 14.0543 24.373 13.7422C24.3755 13.7416 24.3795 13.7414 24.3848 13.7402C24.3967 13.7376 24.414 13.734 24.4365 13.7295C24.4819 13.7205 24.5474 13.7075 24.6289 13.6924C24.7918 13.6622 25.0209 13.6218 25.2939 13.5732C25.8403 13.4761 26.5635 13.3497 27.29 13.2246C28.0166 13.0995 28.7466 12.9755 29.3066 12.8828C29.5866 12.8365 29.824 12.7974 29.9971 12.7705C30.0836 12.7571 30.1538 12.7464 30.2051 12.7393C30.2307 12.7357 30.2514 12.7332 30.2666 12.7314C30.2799 12.7299 30.2863 12.7296 30.2881 12.7295H30.2891C30.8229 12.7293 31.3484 12.8609 31.8193 13.1123C32.2904 13.3639 32.6924 13.728 32.9893 14.1719L33.4277 14.8311H33.4287C33.8381 15.4398 34.0274 16.1703 33.9658 16.9014C33.9042 17.6325 33.5945 18.3209 33.0889 18.8525C31.4214 20.6186 30.4527 21.6476 29.8916 22.2422C29.611 22.5396 29.4322 22.7285 29.3193 22.8467C29.2075 22.9638 29.164 23.0078 29.1494 23.0205C28.9651 23.1729 28.8425 23.3877 28.8057 23.624C28.7689 23.8604 28.82 24.1024 28.9492 24.3037C29.0786 24.505 29.2775 24.652 29.5078 24.7168C29.7381 24.7815 29.9839 24.7596 30.1992 24.6553L30.2012 24.6543L37.167 21.1357L37.1816 21.1279L37.1934 21.1172L42.8037 15.4482C42.9649 15.2858 43.1761 15.1823 43.4033 15.1553L45.8311 14.8633L45.9189 14.8535V6.74121H37.8555V6.74023L37.8428 6.74121ZM47.9463 15.8496H50.374V5.62695H47.9463V15.8496Z" fill="#353535" stroke="#EFEFEF" stroke-width="0.2"/>
<path d="M36.9756 46.0002C37.165 47.0494 37.6478 48.0239 38.3672 48.8108L38.3662 48.8118L38.373 48.8176C39.1604 49.5364 40.1348 50.0171 41.1836 50.2073L41.3252 50.2327L41.2998 50.0911C41.134 49.1729 40.7439 48.3123 40.167 47.5842L39.9092 47.2805L39.9023 47.2747L39.5986 47.0159C38.8704 46.4399 38.0094 46.0511 37.0918 45.885L36.9502 45.8586L36.9756 46.0002ZM7.98438 37.0491C8.19968 38.7087 8.91334 40.2637 10.0312 41.509L10.0303 41.51L10.0391 41.5168C11.2846 42.6344 12.8395 43.3478 14.499 43.5627L14.6279 43.5793L14.6113 43.4514C14.4095 41.8954 13.769 40.431 12.7686 39.2278L12.5645 38.9905L12.5566 38.9827L12.3193 38.7776C11.1162 37.7775 9.65156 37.1381 8.0957 36.9368L7.9668 36.9202L7.98438 37.0491ZM25.5947 36.9758C24.5465 37.1652 23.5733 37.6468 22.7871 38.3655H22.7861L22.7803 38.3713C22.0624 39.1589 21.5811 40.1333 21.3916 41.1819L21.3662 41.3235L21.5078 41.2981C22.5562 41.1088 23.5301 40.6272 24.3164 39.9084L24.4531 39.7825L24.4238 39.7747C25.0824 39.0104 25.5294 38.0865 25.7109 37.092L25.7373 36.9495L25.5947 36.9758ZM32.3818 31.3665C32.4284 33.7478 33.297 36.04 34.8408 37.8538L34.8467 37.8596L34.8525 37.8645C36.6637 39.4119 38.9561 40.2823 41.3379 40.3264L41.4414 40.3284L41.4395 40.2249C41.3929 37.8435 40.5242 35.5513 38.9805 33.7375L38.9746 33.7307L38.9688 33.7258C37.1576 32.1786 34.8651 31.3081 32.4834 31.2639L32.3799 31.262L32.3818 31.3665ZM50.1426 33.595C48.4818 33.8096 46.9251 34.5234 45.6787 35.6418L45.7451 35.7161L45.6777 35.6418L45.6709 35.6497C44.5488 36.8933 43.8331 38.4501 43.6201 40.1116L43.6035 40.2395L43.7324 40.2229C45.3933 40.0082 46.9499 39.2946 48.1963 38.176L48.3906 38.0022H48.3438C49.3838 36.7877 50.049 35.2953 50.2539 33.7063L50.2705 33.5784L50.1426 33.595ZM5.6543 23.5706C5.70082 25.9521 6.57035 28.244 8.11426 30.0579L8.11914 30.0647L8.125 30.0696C9.93614 31.6169 12.2287 32.4873 14.6104 32.5315L14.7139 32.5334L14.7119 32.429C14.6653 30.0475 13.7968 27.7554 12.2529 25.9417L12.248 25.9358L12.2422 25.9309L11.8965 25.6487C10.1435 24.2779 7.9888 23.5104 5.75586 23.469L5.65234 23.467L5.6543 23.5706ZM23.4121 25.7991C21.7512 26.0137 20.1937 26.7274 18.9473 27.8459L18.9404 27.8538C17.8183 29.0974 17.1027 30.6543 16.8896 32.3157L16.873 32.4446L17.002 32.428C18.5591 32.2267 20.0244 31.5862 21.2285 30.5852L21.4658 30.3811L21.4727 30.3733C22.5948 29.1296 23.3104 27.5728 23.5234 25.9114L23.54 25.7825L23.4121 25.7991ZM41.4648 42.3596L41.3701 42.3547C39.5194 42.2659 35.8816 41.7507 33.418 39.2883C31.7435 37.6183 30.9696 35.4028 30.6162 33.5686C30.2662 31.752 30.3301 30.3199 30.334 30.1829C30.3478 29.9339 30.4535 29.6981 30.6299 29.5217C30.8062 29.3456 31.0412 29.2406 31.29 29.2268C31.4004 29.2204 32.8432 29.1504 34.6777 29.5032C36.5132 29.8561 38.7306 30.63 40.4033 32.302C41.4362 33.3656 42.2155 34.6488 42.6826 36.0559L42.7549 36.2756L42.8652 36.0725C43.2344 35.3905 43.6976 34.7633 44.2422 34.2112C46.2225 32.474 48.7538 31.4932 51.3877 31.4407C51.6564 31.4407 51.9144 31.5476 52.1045 31.7375C52.2946 31.9276 52.4013 32.1856 52.4014 32.4543C52.3497 35.0913 51.3667 37.6245 49.627 39.6067C47.9536 41.1288 45.8343 42.0713 43.583 42.2932L43.4922 42.302V51.386C43.4922 51.6548 43.3854 51.9127 43.1953 52.1028C43.0052 52.2929 42.7473 52.3987 42.4785 52.3987C40.4341 52.3645 38.4694 51.6015 36.9395 50.2454C35.5888 48.711 34.8247 46.7481 34.7832 44.7043C34.7832 44.4356 34.89 44.1776 35.0801 43.9875C35.2699 43.7977 35.5275 43.691 35.7959 43.6907C37.8208 43.7324 39.7676 44.4805 41.2998 45.8049L41.4648 45.9475V42.3596ZM14.7383 34.5637L14.6426 34.5598C12.8496 34.4737 9.37966 33.9871 6.9248 31.718L6.69043 31.4924C5.01608 29.8224 4.24202 27.6069 3.88867 25.7727C3.53839 23.9542 3.6037 22.5211 3.60742 22.387C3.62131 22.1381 3.7261 21.9031 3.90234 21.7268C4.07861 21.5505 4.31362 21.4448 4.5625 21.4309H4.56348C4.67521 21.4244 6.1163 21.3551 7.94922 21.7073C9.6703 22.038 11.7277 22.7388 13.3564 24.2034L13.6768 24.5071C14.7094 25.5706 15.4881 26.8541 15.9551 28.261L16.0283 28.4807L16.1377 28.2766C16.5058 27.5966 16.9682 26.972 17.5107 26.4211C19.492 24.6811 22.0248 23.6981 24.6611 23.6458C24.9298 23.6459 25.187 23.7527 25.377 23.9426C25.567 24.1327 25.6738 24.3906 25.6738 24.6594H25.6748C25.623 27.2959 24.6397 29.8288 22.9004 31.8108C21.2247 33.3276 19.1052 34.2644 16.8555 34.4827L16.7656 34.4915V45.3831L16.9492 45.092C17.6189 44.0353 18.3689 43.0308 19.1914 42.0881L19.2139 42.0627L19.2158 42.0286C19.33 40.1383 20.0812 38.3426 21.3467 36.9338C22.8876 35.5941 24.8473 34.8327 26.8887 34.7815C27.1571 34.7817 27.4146 34.8886 27.6045 35.0784C27.7945 35.2684 27.9013 35.5264 27.9014 35.7952C27.8607 37.8394 27.0976 39.8031 25.7471 41.3381C24.3588 42.5883 22.5907 43.3362 20.7266 43.4612L20.6846 43.4641L20.6572 43.4954C20.1909 44.0339 19.2202 45.2159 18.3652 46.6555C17.5119 48.0923 16.7657 49.7994 16.7656 51.386V52.3997H14.7383V45.6555L14.6475 45.6458C12.5328 45.4344 10.5353 44.5872 8.91699 43.22L8.59863 42.9387C6.86254 40.9584 5.8818 38.4284 5.8291 35.7952C5.82916 35.5264 5.93594 35.2684 6.12598 35.0784C6.31605 34.8884 6.57406 34.7815 6.84277 34.7815V34.7805C7.13329 34.7975 11.2924 34.8539 13.9922 37.5559V37.5549C14.193 37.7578 14.3826 37.9716 14.5596 38.1956L14.7383 38.4221V34.5637Z" fill="#353535" stroke="#EFEFEF" stroke-width="0.2"/>
</svg>
