<svg width="52" height="52" viewBox="0 0 52 52" fill="none" xmlns="http://www.w3.org/2000/svg">
<path d="M40.0193 36.4651L40.8643 43.3117C41.081 45.11 39.1526 46.3666 37.6143 45.435L28.536 40.04C27.5393 40.04 26.5643 39.9751 25.611 39.8451C27.2143 37.9601 28.1676 35.5767 28.1676 32.9983C28.1676 26.845 22.8376 21.8618 16.251 21.8618C13.7376 21.8618 11.4193 22.5767 9.49098 23.8334C9.42598 23.2917 9.4043 22.75 9.4043 22.1867C9.4043 12.3284 17.9626 4.33337 28.536 4.33337C39.1093 4.33337 47.6676 12.3284 47.6676 22.1867C47.6676 28.0367 44.656 33.2151 40.0193 36.4651Z" stroke="#3B6647" stroke-width="4" stroke-linecap="round" stroke-linejoin="round"/>
<path d="M28.1673 32.9983C28.1673 35.5766 27.214 37.96 25.6107 39.845C23.4657 42.445 20.064 44.1133 16.2507 44.1133L10.5956 47.4716C9.64232 48.0566 8.42898 47.2549 8.55898 46.1499L9.10064 41.8817C6.19731 39.8667 4.33398 36.6383 4.33398 32.9983C4.33398 29.1849 6.37066 25.8266 9.49066 23.8333C11.419 22.5766 13.7373 21.8617 16.2507 21.8617C22.8373 21.8617 28.1673 26.8449 28.1673 32.9983Z" stroke="#3B6647" stroke-width="4" stroke-linecap="round" stroke-linejoin="round"/>
</svg>
