<svg width="56" height="56" viewBox="0 0 56 56" fill="none" xmlns="http://www.w3.org/2000/svg">
<path d="M48.791 25.9467C48.791 37.3567 40.5076 48.0433 29.191 51.17C28.421 51.38 27.5809 51.38 26.8109 51.17C15.4943 48.0433 7.21094 37.3567 7.21094 25.9467V15.7033C7.21094 13.79 8.65764 11.62 10.4543 10.8966L23.4509 5.5767C26.3676 4.3867 29.6576 4.3867 32.5743 5.5767L45.5709 10.8966C47.3443 11.62 48.8143 13.79 48.8143 15.7033L48.791 25.9467Z" stroke="#353535" stroke-width="2.5" stroke-linecap="round" stroke-linejoin="round"/>
<path d="M28.0007 29.1667C30.578 29.1667 32.6673 27.0774 32.6673 24.5C32.6673 21.9227 30.578 19.8334 28.0007 19.8334C25.4233 19.8334 23.334 21.9227 23.334 24.5C23.334 27.0774 25.4233 29.1667 28.0007 29.1667Z" stroke="#353535" stroke-width="2.5" stroke-miterlimit="10" stroke-linecap="round" stroke-linejoin="round"/>
<path d="M28 29.1667V36.1667" stroke="#353535" stroke-width="2.5" stroke-miterlimit="10" stroke-linecap="round" stroke-linejoin="round"/>
</svg>
