<svg width="20" height="19" viewBox="0 0 20 19" fill="none" xmlns="http://www.w3.org/2000/svg">
<path fill-rule="evenodd" clip-rule="evenodd" d="M4.33573 0H0.859732L0.0127312 12.76C-0.0385356 13.5122 0.0653877 14.2669 0.318046 14.9772C0.570705 15.6875 0.966703 16.3383 1.48145 16.8892C1.9962 17.44 2.6187 17.8792 3.31029 18.1793C4.00189 18.4795 4.74781 18.6342 5.50173 18.634H13.6197C14.3727 18.6341 15.1176 18.4797 15.8084 18.1802C16.4992 17.8807 17.1212 17.4426 17.6358 16.8929C18.1503 16.3433 18.5466 15.6938 18.8 14.9848C19.0533 14.2758 19.1584 13.5223 19.1087 12.771L18.2507 0H4.33573ZM4.33573 1.1H1.89373L1.11273 12.837C1.07205 13.4384 1.15535 14.0417 1.35749 14.6096C1.55963 15.1774 1.87628 15.6977 2.28781 16.1381C2.69933 16.5785 3.19696 16.9296 3.74982 17.1698C4.30268 17.4099 4.89898 17.5339 5.50173 17.534H13.6197C14.2234 17.5354 14.8209 17.4125 15.3751 17.1731C15.9292 16.9336 16.4282 16.5827 16.8409 16.1421C17.2536 15.7015 17.5713 15.1807 17.7741 14.6122C17.9769 14.0436 18.0605 13.4393 18.0197 12.837L17.2277 1.1H14.7857V1.793C14.7857 2.47916 14.6506 3.15859 14.388 3.79252C14.1254 4.42645 13.7406 5.00245 13.2554 5.48763C12.7702 5.97282 12.1942 6.35769 11.5603 6.62027C10.9263 6.88285 10.2469 7.018 9.56073 7.018C8.87457 7.018 8.19514 6.88285 7.56121 6.62027C6.92728 6.35769 6.35128 5.97282 5.8661 5.48763C5.38091 5.00245 4.99604 4.42645 4.73346 3.79252C4.47088 3.15859 4.33573 2.47916 4.33573 1.793V1.1ZM13.6857 1.1H5.43573V1.793C5.43573 2.88702 5.87033 3.93623 6.64392 4.70981C7.4175 5.4834 8.46671 5.918 9.56073 5.918C10.6547 5.918 11.704 5.4834 12.4775 4.70981C13.2511 3.93623 13.6857 2.88702 13.6857 1.793V1.1Z" fill="#365E2E"/>
</svg>
