<svg width="32" height="32" viewBox="0 0 32 32" fill="none" xmlns="http://www.w3.org/2000/svg">
<rect width="32" height="32" rx="8" fill="white" fill-opacity="0.05"/>
<path d="M22.6473 20.22C22.6473 20.46 22.594 20.7067 22.4806 20.9467C22.3673 21.1867 22.2207 21.4134 22.0273 21.6267C21.7007 21.9867 21.3407 22.2467 20.934 22.4134C20.534 22.58 20.1007 22.6667 19.634 22.6667C18.954 22.6667 18.2273 22.5067 17.4607 22.18C16.694 21.8534 15.9273 21.4134 15.1673 20.86C14.4007 20.3 13.674 19.68 12.9807 18.9934C12.294 18.3 11.674 17.5734 11.1207 16.8134C10.574 16.0534 10.134 15.2934 9.81398 14.54C9.49398 13.78 9.33398 13.0534 9.33398 12.36C9.33398 11.9067 9.41398 11.4734 9.57398 11.0734C9.73398 10.6667 9.98732 10.2934 10.3407 9.96004C10.7673 9.54004 11.234 9.33337 11.7273 9.33337C11.914 9.33337 12.1007 9.37337 12.2673 9.45337C12.4407 9.53337 12.594 9.65337 12.714 9.82671L14.2607 12.0067C14.3807 12.1734 14.4673 12.3267 14.5273 12.4734C14.5873 12.6134 14.6207 12.7534 14.6207 12.88C14.6207 13.04 14.574 13.2 14.4807 13.3534C14.394 13.5067 14.2673 13.6667 14.1073 13.8267L13.6007 14.3534C13.5273 14.4267 13.494 14.5134 13.494 14.62C13.494 14.6734 13.5007 14.72 13.514 14.7734C13.534 14.8267 13.554 14.8667 13.5673 14.9067C13.6873 15.1267 13.894 15.4134 14.1873 15.76C14.4873 16.1067 14.8073 16.46 15.154 16.8134C15.514 17.1667 15.8607 17.4934 16.214 17.7934C16.5607 18.0867 16.8473 18.2867 17.074 18.4067C17.1073 18.42 17.1473 18.44 17.194 18.46C17.2473 18.48 17.3007 18.4867 17.3607 18.4867C17.474 18.4867 17.5607 18.4467 17.634 18.3734L18.1407 17.8734C18.3073 17.7067 18.4673 17.58 18.6207 17.5C18.774 17.4067 18.9273 17.36 19.094 17.36C19.2207 17.36 19.354 17.3867 19.5007 17.4467C19.6473 17.5067 19.8007 17.5934 19.9673 17.7067L22.174 19.2734C22.3473 19.3934 22.4673 19.5334 22.5406 19.7C22.6073 19.8667 22.6473 20.0334 22.6473 20.22Z" stroke="#E4E4E4" stroke-width="1.5" stroke-miterlimit="10"/>
</svg>
