<svg width="20" height="20" viewBox="0 0 20 20" fill="none" xmlns="http://www.w3.org/2000/svg">
<g clip-path="url(#clip0_40000193_17)">
<path fill-rule="evenodd" clip-rule="evenodd" d="M12.1369 12.2948C11.5715 12.8602 10.9003 13.3087 10.1616 13.6147C9.42293 13.9206 8.6312 14.0781 7.83164 14.0781C7.03207 14.0781 6.24034 13.9206 5.50164 13.6147C4.76295 13.3087 4.09175 12.8602 3.52637 12.2948C2.961 11.7294 2.51252 11.0583 2.20654 10.3196C1.90056 9.58085 1.74307 8.78912 1.74307 7.98956C1.74307 7.19 1.90056 6.39827 2.20654 5.65957C2.51252 4.92087 2.961 4.24967 3.52637 3.6843C4.6682 2.54247 6.21685 1.901 7.83164 1.901C9.44642 1.901 10.9951 2.54247 12.1369 3.6843C13.2787 4.82612 13.9202 6.37477 13.9202 7.98956C13.9202 9.60435 13.2787 11.153 12.1369 12.2948ZM12.4106 13.4738C10.9946 14.6597 9.17393 15.2504 7.33139 15.1218C5.48885 14.9933 3.76792 14.1553 2.53035 12.7842C1.29278 11.4131 0.634977 9.61564 0.695206 7.7696C0.755434 5.92356 1.52901 4.17276 2.85331 2.88524C4.17762 1.59772 5.94951 0.873763 7.79651 0.865549C9.64352 0.857335 11.4218 1.56551 12.7575 2.84119C14.0932 4.11688 14.8823 5.86073 14.9589 7.70616C15.0356 9.55159 14.3938 11.3549 13.1685 12.7369L18.8527 18.4211C18.9074 18.4687 18.9517 18.5271 18.9828 18.5926C19.0139 18.6581 19.0312 18.7294 19.0334 18.8019C19.0357 18.8743 19.023 18.9465 18.996 19.0138C18.9691 19.0812 18.9285 19.1422 18.8769 19.1931C18.8253 19.2441 18.7636 19.2838 18.6959 19.3097C18.6282 19.3357 18.5559 19.3474 18.4834 19.3441C18.411 19.3408 18.34 19.3226 18.2749 19.2906C18.2099 19.2585 18.1521 19.2134 18.1053 19.158L12.4106 13.4738Z" fill="#365E2E"/>
</g>
<defs>
<clipPath id="clip0_40000193_17">
<rect width="20" height="20" fill="white"/>
</clipPath>
</defs>
</svg>
