<svg width="20" height="20" viewBox="0 0 20 20" fill="none" xmlns="http://www.w3.org/2000/svg">
<path fill-rule="evenodd" clip-rule="evenodd" d="M6.84221 4.73689C6.84221 3.89937 7.17491 3.09615 7.76713 2.50392C8.35935 1.9117 9.16258 1.579 10.0001 1.579C10.8376 1.579 11.6409 1.9117 12.2331 2.50392C12.8253 3.09615 13.158 3.89937 13.158 4.73689C13.158 5.57442 12.8253 6.37764 12.2331 6.96986C11.6409 7.56208 10.8376 7.89479 10.0001 7.89479C9.16258 7.89479 8.35935 7.56208 7.76713 6.96986C7.17491 6.37764 6.84221 5.57442 6.84221 4.73689ZM10.0001 0.526367C8.8834 0.526367 7.81244 0.969975 7.02281 1.7596C6.23318 2.54923 5.78958 3.62019 5.78958 4.73689C5.78958 5.85359 6.23318 6.92456 7.02281 7.71419C7.81244 8.50381 8.8834 8.94742 10.0001 8.94742C11.1168 8.94742 12.1878 8.50381 12.9774 7.71419C13.767 6.92456 14.2106 5.85359 14.2106 4.73689C14.2106 3.62019 13.767 2.54923 12.9774 1.7596C12.1878 0.969975 11.1168 0.526367 10.0001 0.526367ZM15.8738 13.3158C17.0527 14.179 17.8001 15.6737 17.8843 18.4211H2.11589C2.2001 15.6843 2.94747 14.179 4.11589 13.3158C5.43168 12.3685 7.36852 12.1053 10.0001 12.1053C12.6317 12.1053 14.5791 12.379 15.8738 13.3158ZM10.0001 11.0527C7.36852 11.0527 5.10537 11.3053 3.50537 12.4737C1.86326 13.6632 1.05273 15.7158 1.05273 18.9474V19.4737H18.9475V18.9474C18.9475 15.7158 18.1369 13.6632 16.4948 12.4737C14.8948 11.3158 12.6317 11.0527 10.0001 11.0527Z" fill="white"/>
</svg>
